<svg xmlns="http://www.w3.org/2000/svg" version="1.1" xmlns:xlink="http://www.w3.org/1999/xlink" xmlns:svgjs="http://svgjs.com/svgjs" width="1350" height="900" preserveAspectRatio="none" viewBox="0 0 1350 900"><g mask="url(&quot;#SvgjsMask1576&quot;)" fill="none"><rect width="1350" height="900" x="0" y="0" fill="url(#SvgjsRadialGradient1577)"></rect><path d="M1350 0L1016.15 0L1350 253.23z" fill="rgba(255, 255, 255, .1)"></path><path d="M1016.15 0L1350 253.23L1350 289.15999999999997L560.65 0z" fill="rgba(255, 255, 255, .075)"></path><path d="M560.65 0L1350 289.15999999999997L1350 321.30999999999995L418.42999999999995 0z" fill="rgba(255, 255, 255, .05)"></path><path d="M418.42999999999995 0L1350 321.30999999999995L1350 405.99999999999994L145.40999999999997 0z" fill="rgba(255, 255, 255, .025)"></path><path d="M0 900L464.17 900L0 853.03z" fill="rgba(0, 0, 0, .1)"></path><path d="M0 853.03L464.17 900L785.3900000000001 900L0 811.0699999999999z" fill="rgba(0, 0, 0, .075)"></path><path d="M0 811.0699999999999L785.3900000000001 900L1043.5800000000002 900L0 380.8399999999999z" fill="rgba(0, 0, 0, .05)"></path><path d="M0 380.8399999999999L1043.5800000000002 900L1044.0200000000002 900L0 239.39999999999992z" fill="rgba(0, 0, 0, .025)"></path></g><defs><mask id="SvgjsMask1576"><rect width="1350" height="900" fill="#ffffff"></rect></mask><radialGradient cx="0%" cy="100%" r="1622.5" gradientUnits="userSpaceOnUse" id="SvgjsRadialGradient1577"><stop stop-color="rgba(184, 126, 0, 1)" offset="0"></stop><stop stop-color="rgba(255, 185, 87, 1)" offset="0.49"></stop><stop stop-color="rgba(255, 254, 0, 1)" offset="1"></stop></radialGradient></defs></svg>