<svg xmlns="http://www.w3.org/2000/svg" version="1.1" xmlns:xlink="http://www.w3.org/1999/xlink" xmlns:svgjs="http://svgjs.com/svgjs" width="1450" height="900" preserveAspectRatio="none" viewBox="0 0 1450 900"><g mask="url(&quot;#SvgjsMask1580&quot;)" fill="none"><rect width="1450" height="900" x="0" y="0" fill="url(#SvgjsRadialGradient1581)"></rect><path d="M1450 0L1296.78 0L1450 427.95z" fill="rgba(255, 255, 255, .1)"></path><path d="M1296.78 0L1450 427.95L1450 444.36L759.24 0z" fill="rgba(255, 255, 255, .075)"></path><path d="M759.24 0L1450 444.36L1450 682.22L386.42 0z" fill="rgba(255, 255, 255, .05)"></path><path d="M386.4200000000001 0L1450 682.22L1450 811.69L299.1400000000001 0z" fill="rgba(255, 255, 255, .025)"></path><path d="M0 900L186.37 900L0 712.71z" fill="rgba(0, 0, 0, .1)"></path><path d="M0 712.71L186.37 900L880.36 900L0 668.24z" fill="rgba(0, 0, 0, .075)"></path><path d="M0 668.24L880.36 900L1218.78 900L0 357.75z" fill="rgba(0, 0, 0, .05)"></path><path d="M0 357.75L1218.78 900L1239.98 900L0 109.83000000000001z" fill="rgba(0, 0, 0, .025)"></path></g><defs><mask id="SvgjsMask1580"><rect width="1450" height="900" fill="#ffffff"></rect></mask><radialGradient cx="0%" cy="100%" r="1706.6" gradientUnits="userSpaceOnUse" id="SvgjsRadialGradient1581"><stop stop-color="rgba(184, 126, 0, 1)" offset="0"></stop><stop stop-color="rgba(255, 185, 87, 1)" offset="0.49"></stop><stop stop-color="rgba(255, 254, 0, 1)" offset="1"></stop></radialGradient></defs></svg>